<!-- icon666.com - MILLIONS vector ICONS FREE --><svg clip-rule="evenodd" fill-rule="evenodd" stroke-linejoin="round" stroke-miterlimit="2" viewBox="0 0 64 64" xmlns="http://www.w3.org/2000/svg"><g transform="translate(-448 -320)"><g transform="translate(256)"><path d="m240 376-12-48h16l1 4-1 2 2 2 1 4-1 2 2 2 1 4-1 2 2 2 1 4-1 2 2 2 1 4-1 2 2 2 1 4-1 2 2 2z" fill="#dfeef8"></path></g><g transform="translate(21 12)"><path d="m480 320h-16l1 4h16z" fill="#df004b"></path></g><g transform="translate(23 20)"><path d="m480 320h-16l1 4h16z" fill="#df004b"></path></g><g transform="translate(25 28)"><path d="m480 320h-16l1 4h16z" fill="#df004b"></path></g><g transform="translate(27 36)"><path d="m480 320h-16l1 4h16z" fill="#df004b"></path></g><g transform="translate(29 44)"><path d="m480 320h-16l1 4h16z" fill="#df004b"></path></g><g transform="translate(31 52)"><path d="m480 320h-16l1 4h16z" fill="#df004b"></path></g><g transform="matrix(1 0 0 1.125 384 -48)"><path d="m68 369.778c0-.472-.211-.924-.586-1.257-.375-.334-.884-.521-1.414-.521s-1.039.187-1.414.521c-.375.333-.586.785-.586 1.257v14.222h4z" fill="#001130"></path></g><g transform="translate(390 -4)"><path d="m98 372 8-8 8 8-8 8z" fill="#001130"></path></g><g transform="matrix(1.143 0 0 .571 390.857 169.143)"><path d="m78 264-28 42 1.75 3.5-1.75 3.5v7l1.75 3.5-1.75 3.5v7l1.75 3.5-1.75 3.5v7h49z" fill="#f9f6f6"></path></g><path d="m480 320-5.333 4h7.333z" fill="#ff0050"></path><g transform="translate(12 24)"><path d="m480 320h-44v4h46z" fill="#ff0050"></path></g><g transform="translate(4 8)"><path d="m480 320h-14.667l-5.333 4h22z" fill="#ff0050"></path></g><g transform="translate(16 32)"><path d="m480 320h-48v4h50z" fill="#ff0050"></path></g><g transform="translate(8 16)"><path d="m480 320h-29.333l-5.334 4h36.667z" fill="#ff0050"></path></g><g transform="translate(20 40)"><path d="m480 320h-52v4h54z" fill="#ff0050"></path></g><g transform="matrix(1.231 0 0 .923 -103.385 24.615)"><path d="m448 320h26v26h-26z" fill="#0032e6"></path></g><g transform="matrix(0 -.109 -.109 0 452 338)"><path d="m-18.286-18.286c0 10.099 8.187 18.286 18.286 18.286-10.099 0-18.286 8.187-18.286 18.286 0-10.099-8.187-18.286-18.286-18.286 10.099 0 18.286-8.187 18.286-18.286" fill="#f9f6f6" fill-rule="nonzero"></path></g><g transform="matrix(0 -.109 -.109 0 460 338)"><path d="m-18.286-18.286c0 10.099 8.187 18.286 18.286 18.286-10.099 0-18.286 8.187-18.286 18.286 0-10.099-8.187-18.286-18.286-18.286 10.099 0 18.286-8.187 18.286-18.286" fill="#f9f6f6" fill-rule="nonzero"></path></g><g transform="matrix(0 -.109 -.109 0 468 338)"><path d="m-18.286-18.286c0 10.099 8.187 18.286 18.286 18.286-10.099 0-18.286 8.187-18.286 18.286 0-10.099-8.187-18.286-18.286-18.286 10.099 0 18.286-8.187 18.286-18.286" fill="#f9f6f6" fill-rule="nonzero"></path></g><g transform="matrix(0 -.109 -.109 0 476 338)"><path d="m-18.286-18.286c0 10.099 8.187 18.286 18.286 18.286-10.099 0-18.286 8.187-18.286 18.286 0-10.099-8.187-18.286-18.286-18.286 10.099 0 18.286-8.187 18.286-18.286" fill="#f9f6f6" fill-rule="nonzero"></path></g><g transform="matrix(0 -.109 -.109 0 456 334)"><path d="m-18.286-18.286c0 10.099 8.187 18.286 18.286 18.286-10.099 0-18.286 8.187-18.286 18.286 0-10.099-8.187-18.286-18.286-18.286 10.099 0 18.286-8.187 18.286-18.286" fill="#f9f6f6" fill-rule="nonzero"></path></g><g transform="matrix(0 -.109 -.109 0 464 334)"><path d="m-18.286-18.286c0 10.099 8.187 18.286 18.286 18.286-10.099 0-18.286 8.187-18.286 18.286 0-10.099-8.187-18.286-18.286-18.286 10.099 0 18.286-8.187 18.286-18.286" fill="#f9f6f6" fill-rule="nonzero"></path></g><g transform="matrix(0 -.109 -.109 0 472 334)"><path d="m-18.286-18.286c0 10.099 8.187 18.286 18.286 18.286-10.099 0-18.286 8.187-18.286 18.286 0-10.099-8.187-18.286-18.286-18.286 10.099 0 18.286-8.187 18.286-18.286" fill="#f9f6f6" fill-rule="nonzero"></path></g><g transform="matrix(0 -.109 -.109 0 452 330)"><path d="m-18.286-18.286c0 10.099 8.187 18.286 18.286 18.286-10.099 0-18.286 8.187-18.286 18.286 0-10.099-8.187-18.286-18.286-18.286 10.099 0 18.286-8.187 18.286-18.286" fill="#f9f6f6" fill-rule="nonzero"></path></g><g transform="matrix(0 -.109 -.109 0 460 330)"><path d="m-18.286-18.286c0 10.099 8.187 18.286 18.286 18.286-10.099 0-18.286 8.187-18.286 18.286 0-10.099-8.187-18.286-18.286-18.286 10.099 0 18.286-8.187 18.286-18.286" fill="#f9f6f6" fill-rule="nonzero"></path></g><g transform="matrix(0 -.109 -.109 0 468 330)"><path d="m-18.286-18.286c0 10.099 8.187 18.286 18.286 18.286-10.099 0-18.286 8.187-18.286 18.286 0-10.099-8.187-18.286-18.286-18.286 10.099 0 18.286-8.187 18.286-18.286" fill="#f9f6f6" fill-rule="nonzero"></path></g><g transform="matrix(0 -.109 -.109 0 476 330)"><path d="m-18.286-18.286c0 10.099 8.187 18.286 18.286 18.286-10.099 0-18.286 8.187-18.286 18.286 0-10.099-8.187-18.286-18.286-18.286 10.099 0 18.286-8.187 18.286-18.286" fill="#f9f6f6" fill-rule="nonzero"></path></g><g transform="matrix(0 -.109 -.109 0 456 326)"><path d="m-18.286-18.286c0 10.099 8.187 18.286 18.286 18.286-10.099 0-18.286 8.187-18.286 18.286 0-10.099-8.187-18.286-18.286-18.286 10.099 0 18.286-8.187 18.286-18.286" fill="#f9f6f6" fill-rule="nonzero"></path></g><g transform="matrix(0 -.109 -.109 0 464 326)"><path d="m-18.286-18.286c0 10.099 8.187 18.286 18.286 18.286-10.099 0-18.286 8.187-18.286 18.286 0-10.099-8.187-18.286-18.286-18.286 10.099 0 18.286-8.187 18.286-18.286" fill="#f9f6f6" fill-rule="nonzero"></path></g><g transform="matrix(0 -.109 -.109 0 472 326)"><path d="m-18.286-18.286c0 10.099 8.187 18.286 18.286 18.286-10.099 0-18.286 8.187-18.286 18.286 0-10.099-8.187-18.286-18.286-18.286 10.099 0 18.286-8.187 18.286-18.286" fill="#f9f6f6" fill-rule="nonzero"></path></g><g transform="matrix(0 -.109 -.109 0 452 322)"><path d="m-18.286-18.286c0 10.099 8.187 18.286 18.286 18.286-10.099 0-18.286 8.187-18.286 18.286 0-10.099-8.187-18.286-18.286-18.286 10.099 0 18.286-8.187 18.286-18.286" fill="#f9f6f6" fill-rule="nonzero"></path></g><g transform="matrix(0 -.109 -.109 0 460 322)"><path d="m-18.286-18.286c0 10.099 8.187 18.286 18.286 18.286-10.099 0-18.286 8.187-18.286 18.286 0-10.099-8.187-18.286-18.286-18.286 10.099 0 18.286-8.187 18.286-18.286" fill="#f9f6f6" fill-rule="nonzero"></path></g><g transform="matrix(0 -.109 -.109 0 468 322)"><path d="m-18.286-18.286c0 10.099 8.187 18.286 18.286 18.286-10.099 0-18.286 8.187-18.286 18.286 0-10.099-8.187-18.286-18.286-18.286 10.099 0 18.286-8.187 18.286-18.286" fill="#f9f6f6" fill-rule="nonzero"></path></g><g transform="matrix(0 -.109 -.109 0 476 322)"><path d="m-18.286-18.286c0 10.099 8.187 18.286 18.286 18.286-10.099 0-18.286 8.187-18.286 18.286 0-10.099-8.187-18.286-18.286-18.286 10.099 0 18.286-8.187 18.286-18.286" fill="#f9f6f6" fill-rule="nonzero"></path></g></g></svg>