<!-- icon666.com - MILLIONS vector ICONS FREE --><svg clip-rule="evenodd" fill-rule="evenodd" stroke-linejoin="round" stroke-miterlimit="2" viewBox="0 0 64 64" xmlns="http://www.w3.org/2000/svg"><g transform="translate(-64 -320)"><g transform="matrix(1 0 0 1.125 0 -48)"><path d="m68 369.778c0-.472-.211-.924-.586-1.257-.375-.334-.884-.521-1.414-.521s-1.039.187-1.414.521c-.375.333-.586.785-.586 1.257v14.222h4z" fill="#001130"></path></g><g transform="matrix(-1.143 0 0 -.571 193.143 558.857)"><path d="m76.25 362-5.25-42h-14l3.5 28z" fill="#df004b"></path></g><g transform="matrix(-1.143 0 0 -.571 193.143 542.857)"><path d="m74.5 320h-14l3.5 28 15.75 14z" fill="#005af0"></path></g><g transform="matrix(-1.143 0 0 -.571 193.143 526.857)"><path d="m78 320h-14l3.5 28h14z" fill="#dfeef8"></path></g><g transform="translate(6 -4)"><path d="m98 372 8-8 8 8-8 8z" fill="#001130"></path></g><g transform="matrix(1.143 0 0 .571 6.857 137.143)"><path d="m85 348-7-28h-28v28l35 28z" fill="#f9f6f6"></path></g><g transform="matrix(1.143 0 0 .571 6.857 153.143)"><path d="m85 320h-35v28l42 28v-28z" fill="#0081f8"></path></g><g transform="matrix(1.143 0 0 .571 6.857 169.143)"><path d="m92 320h-42v28h49z" fill="#ff0050"></path></g></g></svg>