<svg width="70" height="32" viewBox="0 0 70 32" fill="none" xmlns="http://www.w3.org/2000/svg">
<mask id="mask0_242_61" style="mask-type:luminance" maskUnits="userSpaceOnUse" x="0" y="0" width="70" height="32">
<path d="M70 0H0V32H70V0Z" fill="white"/>
</mask>
<g mask="url(#mask0_242_61)">
<path d="M12.8248 12.8747C13.1775 11.1802 12.5407 9.96568 11.4042 9.17229C10.3657 8.47687 9.05287 8.3789 7.66166 9.06456L1.8813 11.67C0.431309 12.3263 -0.195712 14.0208 0.431309 15.441C1.08773 16.8906 2.75325 17.5175 4.20324 16.8906L4.96743 16.538L3.72318 23.2965C3.37048 25.3338 4.69311 26.9989 6.49578 27.3515C8.40627 27.7042 10.2677 26.4504 10.5812 24.5404L12.8248 12.8747Z" fill="url(#paint0_linear_242_61)"/>
<path d="M65.4066 8.67163C62.2225 8.2113 59.0093 10.0723 57.7843 12.6973L57.99 11.5513C58.5095 9.22996 57.5397 8.61287 55.8836 8.61287H53.7384C51.7003 8.61287 51.2397 9.71969 50.9952 11.0028L48.4965 24.8527C48.2908 25.793 48.4282 27.419 50.2602 27.419H53.2386C55.0022 27.419 55.345 26.0379 55.59 24.7156L56.7949 18.0649C57.0792 16.5467 57.3144 15.8121 57.8334 15.2538C58.6269 14.3527 60.2241 13.9413 61.3313 14.8424C61.9873 15.3909 62.2323 16.3312 62.056 17.6535L60.8511 24.8527C60.5864 26.4493 61.2625 27.419 62.5853 27.419H65.5633C67.2582 27.419 67.6014 26.1065 67.8464 24.7156L69.59 15.6946C70.4031 12.4426 69.2571 9.22996 65.4066 8.67163Z" fill="url(#paint1_linear_242_61)"/>
<path d="M46.312 6.81132C48.2058 6.81132 49.7411 5.28961 49.7411 3.41249C49.7411 1.53537 48.2058 0.0136719 46.312 0.0136719C44.4181 0.0136719 42.8828 1.53537 42.8828 3.41249C42.8828 5.28961 44.4181 6.81132 46.312 6.81132Z" fill="url(#paint2_linear_242_61)"/>
<path d="M46.5274 24.6965C46.2824 26.1461 45.871 27.3998 44.176 27.3998H41.1682C39.7182 27.3998 39.1892 26.3224 39.4733 24.9022L41.9422 10.9837C42.1872 9.49487 42.8435 8.59375 44.6856 8.59375H46.9683C48.9078 8.59375 49.388 9.53404 48.9766 11.5322L46.5274 24.6965Z" fill="url(#paint3_linear_242_61)"/>
<path d="M13.4321 8.59375C14.1963 9.49487 15.0977 10.6017 14.6372 13.305L13.4615 19.6521L13.6673 24.7455C13.7065 26.5869 14.6078 27.3803 16.1264 27.3803H20.0061C21.2111 27.3803 21.7402 26.44 22.2202 25.2744L25.1594 18.036L25.4729 24.9609C25.5121 26.4791 26.2665 27.4194 27.6871 27.4194H32.0861C33.3303 27.4194 33.8495 26.6554 34.408 25.3135L40.0512 11.4636C40.6684 10.0434 40.2961 8.6231 38.7678 8.6231H35.9559C34.9175 8.6231 34.1925 8.97574 33.7712 9.97483L29.9601 19.2407L29.6074 10.9641C29.5388 9.20102 28.706 8.61333 27.6969 8.61333H24.8263C23.68 8.61333 23.0236 9.06389 22.6807 9.92585L18.8696 19.2799L18.5169 10.7584C18.4777 9.16186 17.9291 8.61333 16.6456 8.61333H14.1963H13.4321V8.59375Z" fill="url(#paint4_linear_242_61)"/>
</g>
<defs>
<linearGradient id="paint0_linear_242_61" x1="6.55255" y1="30.0012" x2="6.55255" y2="8.15699" gradientUnits="userSpaceOnUse">
<stop stop-color="#0167CA"/>
<stop offset="1" stop-color="#38A8FA"/>
</linearGradient>
<linearGradient id="paint1_linear_242_61" x1="59.1408" y1="27.8983" x2="59.1408" y2="8.1272" gradientUnits="userSpaceOnUse">
<stop stop-color="#C8C7C7"/>
<stop offset="0.0762789" stop-color="#D6D5D5"/>
<stop offset="0.216" stop-color="#E8E8E8"/>
<stop offset="0.3802" stop-color="#F5F5F5"/>
<stop offset="0.5898" stop-color="#FDFDFD"/>
<stop offset="1" stop-color="white"/>
</linearGradient>
<linearGradient id="paint2_linear_242_61" x1="46.3128" y1="8.54145" x2="46.3128" y2="-1.16652" gradientUnits="userSpaceOnUse">
<stop stop-color="#0167CA"/>
<stop offset="1" stop-color="#38A8FA"/>
</linearGradient>
<linearGradient id="paint3_linear_242_61" x1="26.8981" y1="27.8977" x2="26.8981" y2="8.16947" gradientUnits="userSpaceOnUse">
<stop stop-color="#C8C7C7"/>
<stop offset="0.0762789" stop-color="#D6D5D5"/>
<stop offset="0.216" stop-color="#E8E8E8"/>
<stop offset="0.3802" stop-color="#F5F5F5"/>
<stop offset="0.5898" stop-color="#FDFDFD"/>
<stop offset="1" stop-color="white"/>
</linearGradient>
<linearGradient id="paint4_linear_242_61" x1="26.898" y1="27.8977" x2="26.898" y2="8.16947" gradientUnits="userSpaceOnUse">
<stop stop-color="#C8C7C7"/>
<stop offset="0.0762789" stop-color="#D6D5D5"/>
<stop offset="0.216" stop-color="#E8E8E8"/>
<stop offset="0.3802" stop-color="#F5F5F5"/>
<stop offset="0.5898" stop-color="#FDFDFD"/>
<stop offset="1" stop-color="white"/>
</linearGradient>
</defs>
</svg>
