<!-- icon666.com - MILLIONS vector ICONS FREE --><svg xmlns="http://www.w3.org/2000/svg" viewBox="0 0 512 512" fill="none"><path d="M130.541 358.311C117.711 360.191 96.5915 363.691 82.5415 347.751C68.4915 331.811 56.3415 293.321 51.0015 258.921C43.1215 208.221 50.9415 165.491 73.0015 138.611C86.0015 122.781 103.062 113.611 122.341 112.151C138.852 110.881 163.521 117.341 187.341 155.341C202.261 179.151 213.611 210.781 218.481 242.111C224.361 279.931 230.091 320.291 210.041 334.761C198.731 342.931 190.611 345.761 171.422 350.331C155.642 354.081 143.382 356.421 130.541 358.311Z" fill="url(#paint0_linear_52_588)"></path><path d="M107.722 390.841L216.611 368.381C225.811 366.481 233.191 371.541 236.611 386.701C247.831 436.461 231.751 496.001 181.391 496.001C133.701 496.001 101.922 441.641 96.7315 412.421C94.3615 399.171 97.7415 392.891 107.722 390.841Z" fill="url(#paint1_linear_52_588)"></path><path d="M340.591 254.341C321.401 249.791 313.281 246.941 301.971 238.771C281.921 224.301 287.651 183.941 293.531 146.121C298.401 114.791 309.752 83.1209 324.672 59.3509C348.472 21.3509 373.142 14.8909 389.672 16.1609C408.932 17.6309 426.001 26.7809 439.001 42.6109C461.081 69.4909 468.901 112.221 461.001 162.921C455.651 197.321 443.542 235.681 429.411 251.751C415.282 267.821 394.282 264.191 381.411 262.311C368.541 260.431 356.361 258.081 340.591 254.341Z" fill="url(#paint2_linear_52_588)"></path><path d="M404.281 294.841L295.392 272.381C286.192 270.481 278.812 275.541 275.392 290.701C264.182 340.461 280.261 400.001 330.621 400.001C378.311 400.001 410.091 345.641 415.281 316.421C417.641 303.171 414.261 296.891 404.281 294.841Z" fill="url(#paint3_linear_52_588)"></path><defs><linearGradient id="paint0_linear_52_588" x1="256.007" y1="16.0156" x2="271.482" y2="472.38" gradientUnits="userSpaceOnUse"><stop stop-color="#FD6700"></stop><stop offset="1" stop-color="#FFCE00"></stop></linearGradient><linearGradient id="paint1_linear_52_588" x1="256.007" y1="16.0156" x2="271.482" y2="472.38" gradientUnits="userSpaceOnUse"><stop stop-color="#FD6700"></stop><stop offset="1" stop-color="#FFCE00"></stop></linearGradient><linearGradient id="paint2_linear_52_588" x1="256.007" y1="16.0156" x2="271.482" y2="472.38" gradientUnits="userSpaceOnUse"><stop stop-color="#FD6700"></stop><stop offset="1" stop-color="#FFCE00"></stop></linearGradient><linearGradient id="paint3_linear_52_588" x1="256.007" y1="16.0156" x2="271.482" y2="472.38" gradientUnits="userSpaceOnUse"><stop stop-color="#FD6700"></stop><stop offset="1" stop-color="#FFCE00"></stop></linearGradient></defs></svg>